<svg width="61" height="61" viewBox="0 0 61 61" fill="none" xmlns="http://www.w3.org/2000/svg">
<path fill-rule="evenodd" clip-rule="evenodd" d="M16.7793 11.5079C17.5655 10.834 18.7492 10.9251 19.4232 11.7113L34.4232 29.2113C35.025 29.9135 35.025 30.9496 34.4232 31.6518L19.4232 49.1518C18.7492 49.938 17.5655 50.0291 16.7793 49.3552C15.9931 48.6812 15.902 47.4976 16.5759 46.7113L30.53 30.4316L16.5759 14.1518C15.902 13.3656 15.9931 12.1819 16.7793 11.5079ZM26.7798 11.5082C27.566 10.8343 28.7497 10.9253 29.4236 11.7116L44.4236 29.2116C45.0255 29.9137 45.0255 30.9499 44.4236 31.652L29.4236 49.152C28.7497 49.9383 27.566 50.0293 26.7798 49.3554C25.9936 48.6815 25.9025 47.4978 26.5764 46.7116L40.5305 30.4318L26.5764 14.152C25.9025 13.3658 25.9936 12.1821 26.7798 11.5082Z" fill="#D9D9D9"/>
</svg>
